<svg width="50" height="51" fill="none" xmlns="http://www.w3.org/2000/svg"><path d="M26.012 39.738a14.326 14.326 0 0 0 11.403 2.121 14.36 14.36 0 0 0 5.363-2.53 14.433 14.433 0 0 0 3.894-4.486 14.496 14.496 0 0 0 1.098-11.595 14.466 14.466 0 0 0-2.982-5.143 14.39 14.39 0 0 0-4.792-3.5 1.939 1.939 0 0 1-.9-.948 15.34 15.34 0 0 0-5.633-6.844A15.24 15.24 0 0 0 25 4.245a15.24 15.24 0 0 0-8.463 2.568 15.34 15.34 0 0 0-5.633 6.844c-.182.411-.5.746-.9.948a14.39 14.39 0 0 0-4.792 3.5 14.466 14.466 0 0 0-2.982 5.143 14.511 14.511 0 0 0 1.098 11.595c.974 1.75 2.3 3.279 3.894 4.486a14.36 14.36 0 0 0 5.363 2.53 14.326 14.326 0 0 0 11.403-2.121 1.838 1.838 0 0 1 2.024 0Z" fill="#FFD550" stroke="#1C1F35" stroke-width="2" stroke-linecap="round" stroke-linejoin="round"/><path d="M43.053 29.887c-1.14 2.849-3.944 7.615-11.618 7.615M7.38 10.723C8.684 7.75 11.723 3.5 18.34 1.97M25.362 49.911V18.715M25.363 32.58l-10.625-5.2" stroke="#1C1F35" stroke-width="2" stroke-linecap="round" stroke-linejoin="round"/><path d="m15.623 24.359 3.464 1.957" stroke="#fff" stroke-linecap="round" stroke-linejoin="round"/><path d="M22.274 18.427v3.915" stroke="#1C1F35" stroke-linecap="round" stroke-linejoin="round"/><path d="M28.065 43.245v5" stroke="#1C1F35" stroke-width="1.5" stroke-linecap="round" stroke-linejoin="round"/><path d="m25.362 27.38 10.625-5.198" stroke="#1C1F35" stroke-width="2" stroke-linecap="round" stroke-linejoin="round"/></svg>