<svg width="50" height="50" viewBox="0 0 50 50" fill="none" xmlns="http://www.w3.org/2000/svg">
<g clip-path="url(#clip0_203_269)">
<path d="M44.4844 45.3978H5.51555C5.01111 45.3978 4.60222 44.9889 4.60222 44.4844V5.51556C4.60222 5.01111 5.01111 4.60222 5.51555 4.60222H44.4844C44.9889 4.60222 45.3978 5.01111 45.3978 5.51556V44.4844C45.3978 44.9889 44.9889 45.3978 44.4844 45.3978Z" fill="#F8DA7F"/>
<path d="M39.0022 50C38.3389 50 37.7167 49.645 37.3789 49.0739L35.9211 46.6083C32.9239 41.5411 30.0928 36.755 29.1172 34.7978C28.3778 33.2811 28.0039 31.6589 28.0039 29.9717C28.0039 23.9072 32.9378 18.9739 39.0022 18.9739C45.0661 18.9739 50 23.9078 50 29.9717C50 31.6567 49.6283 33.275 48.895 34.7817L48.865 34.8394C47.87 36.8256 45.0578 41.5783 42.0811 46.61L40.6255 49.0744C40.2878 49.645 39.6655 50 39.0022 50ZM39.0022 20.085C33.5505 20.085 29.115 24.52 29.115 29.9717C29.115 31.4878 29.4511 32.9461 30.1139 34.3061C31.0694 36.2228 33.8911 40.9928 36.8778 46.0428L38.3355 48.5083C38.4739 48.7428 38.7294 48.8889 39.0022 48.8889C39.2744 48.8889 39.53 48.7428 39.6689 48.5083L41.1244 46.0439C44.0917 41.0294 46.8939 36.2928 47.8722 34.3411C48.555 32.9411 48.8889 31.4867 48.8889 29.9717C48.8889 24.52 44.4539 20.085 39.0022 20.085Z" fill="black"/>
<path d="M39.0022 35.8678C37.6322 35.8678 36.3 35.3839 35.2505 34.5056C35.015 34.3089 34.9844 33.9583 35.1811 33.7233C35.3772 33.4883 35.7283 33.4561 35.9633 33.6539C36.8133 34.365 37.8928 34.7567 39.0022 34.7567C41.6133 34.7567 43.7372 32.6322 43.7372 30.0211C43.7372 27.41 41.6133 25.2856 39.0022 25.2856C36.3911 25.2856 34.2667 27.41 34.2667 30.0211C34.2667 30.3283 34.0183 30.5767 33.7111 30.5767C33.4039 30.5767 33.1555 30.3283 33.1555 30.0211C33.1555 26.7972 35.7789 24.1744 39.0022 24.1744C42.2255 24.1744 44.8483 26.7978 44.8483 30.0211C44.8483 33.2444 42.2261 35.8678 39.0022 35.8678Z" fill="black"/>
<path d="M49.4445 19.2167C49.1372 19.2167 48.8889 18.9678 48.8889 18.6611V1.11111H31.7856C31.4783 1.11111 31.23 0.862222 31.23 0.555556C31.23 0.248889 31.4783 0 31.7856 0H49.4445C49.7517 0 50 0.248889 50 0.555556V18.6611C50 18.9683 49.7517 19.2167 49.4445 19.2167Z" fill="black"/>
<path d="M31.5028 50H0.555556C0.248889 50 0 49.7517 0 49.4444V0.555556C0 0.248889 0.248889 0 0.555556 0H12.6594C12.9661 0 13.215 0.248889 13.215 0.555556C13.215 0.862222 12.9661 1.11111 12.6594 1.11111H1.11111V48.8889H31.5028C31.81 48.8889 32.0583 49.1372 32.0583 49.4444C32.0583 49.7517 31.81 50 31.5028 50Z" fill="black"/>
<path d="M31.7856 14.6817C31.6683 14.6817 31.5522 14.645 31.4545 14.5722L25 9.78L18.5461 14.5722C18.3778 14.6983 18.1528 14.7172 17.9656 14.6228C17.7778 14.5283 17.6595 14.3361 17.6595 14.1261V0.555556C17.6595 0.248889 17.9083 0 18.215 0H25C25.3067 0 25.5556 0.248889 25.5556 0.555556C25.5556 0.862222 25.3067 1.11111 25 1.11111H18.7706V13.0217L24.6689 8.64222C24.8656 8.49611 25.1345 8.49611 25.3311 8.64222L31.23 13.0217V0.555556C31.23 0.248889 31.4783 0 31.7856 0C32.0928 0 32.3411 0.248889 32.3411 0.555556V14.1261C32.3411 14.3361 32.2228 14.5283 32.035 14.6228C31.9561 14.6622 31.8706 14.6817 31.7856 14.6817Z" fill="black"/>
<path d="M16.9889 38.0861H7.76777C7.46111 38.0861 7.21222 37.8378 7.21222 37.5306C7.21222 37.2233 7.46111 36.975 7.76777 36.975H16.9889C17.2956 36.975 17.5444 37.2233 17.5444 37.5306C17.5444 37.8378 17.2956 38.0861 16.9889 38.0861Z" fill="black"/>
<path d="M16.9889 43.1239H7.76777C7.46111 43.1239 7.21222 42.8756 7.21222 42.5683C7.21222 42.2611 7.46111 42.0128 7.76777 42.0128H16.9889C17.2956 42.0128 17.5444 42.2611 17.5444 42.5683C17.5444 42.8756 17.2956 43.1239 16.9889 43.1239Z" fill="black"/>
<path d="M39.0022 50C38.3389 50 37.7167 49.645 37.3789 49.0739L35.9211 46.6083C32.9239 41.5411 30.0928 36.755 29.1172 34.7978C28.3778 33.2811 28.0039 31.6589 28.0039 29.9717C28.0039 23.9072 32.9378 18.9739 39.0022 18.9739C45.0661 18.9739 50 23.9078 50 29.9717C50 31.6567 49.6283 33.275 48.895 34.7817L48.865 34.8394C47.87 36.8256 45.0578 41.5783 42.0811 46.61L40.6255 49.0744C40.2878 49.645 39.6655 50 39.0022 50ZM39.0022 20.085C33.5505 20.085 29.115 24.52 29.115 29.9717C29.115 31.4878 29.4511 32.9461 30.1139 34.3061C31.0694 36.2228 33.8911 40.9928 36.8778 46.0428L38.3355 48.5083C38.4739 48.7428 38.7294 48.8889 39.0022 48.8889C39.2744 48.8889 39.53 48.7428 39.6689 48.5083L41.1244 46.0439C44.0917 41.0294 46.8939 36.2928 47.8722 34.3411C48.555 32.9411 48.8889 31.4867 48.8889 29.9717C48.8889 24.52 44.4539 20.085 39.0022 20.085Z" fill="black"/>
</g>
<defs>
<clipPath id="clip0_203_269">
<rect width="50" height="50" fill="white"/>
</clipPath>
</defs>
</svg>
