<svg width="50" height="50" viewBox="0 0 50 50" fill="none" xmlns="http://www.w3.org/2000/svg">
<path d="M9.52333 20.0033H3.58833C3.14055 20.0033 2.77777 19.6406 2.77777 19.1933V9.67722C2.77777 9.22945 3.14055 8.86667 3.58833 8.86667H13.1044C13.5522 8.86667 13.915 9.22945 13.915 9.67722V13.1917V19.1928C13.915 19.6406 13.5522 20.0033 13.1044 20.0033H10.8639H9.52333Z" fill="#F8DA7F"/>
<path d="M39.2855 39.8322C38.635 39.8322 38.025 39.4844 37.6939 38.9239L36.2755 36.5256C33.3617 31.5994 30.6089 26.9461 29.6556 25.0339C28.935 23.5556 28.5711 21.975 28.5711 20.3328C28.5711 14.425 33.3772 9.61833 39.2855 9.61833C45.1939 9.61833 50 14.425 50 20.3328C50 21.975 49.6378 23.5517 48.9233 25.0194L48.8828 25.0967C47.9289 27.0028 45.1922 31.6289 42.2956 36.5267L40.8783 38.9239C40.5456 39.4844 39.9361 39.8322 39.2855 39.8322ZM39.2855 10.7294C33.9905 10.7294 29.6822 15.0372 29.6822 20.3328C29.6822 21.805 30.0089 23.2217 30.6528 24.5433C31.5855 26.415 34.3283 31.0517 37.2322 35.9606L38.6505 38.3589C38.7822 38.5822 39.0261 38.7211 39.2861 38.7211C39.5461 38.7211 39.7894 38.5822 39.9222 38.3589L41.3389 35.9617C44.2261 31.0811 46.9528 26.4711 47.9017 24.5778C48.5644 23.2183 48.8889 21.805 48.8889 20.3328C48.8889 15.0372 44.5805 10.7294 39.2855 10.7294Z" fill="black"/>
<path d="M39.2856 13.6672C35.4567 13.6672 32.3411 16.7828 32.3411 20.6117C32.3411 21.6767 32.5761 22.6989 33.0428 23.6561C33.685 24.945 35.5644 28.1228 37.555 31.4872L38.5244 33.1267C38.6833 33.3961 38.9728 33.5611 39.2856 33.5611C39.5983 33.5611 39.8878 33.3956 40.0467 33.1267L41.015 31.4878C42.9917 28.1461 44.8594 24.9889 45.5139 23.6828C45.52 23.6717 45.5261 23.66 45.5317 23.6483C45.9944 22.6972 46.2294 21.675 46.2294 20.6111C46.23 16.7822 43.115 13.6672 39.2856 13.6672Z" fill="#F8DA7F"/>
<path d="M39.2855 26.0833C37.9489 26.0833 36.6494 25.6111 35.6261 24.7544C35.3911 24.5578 35.36 24.2072 35.5572 23.9717C35.755 23.7367 36.1044 23.7056 36.34 23.9022C37.1628 24.5917 38.2089 24.9717 39.2855 24.9717C41.8178 24.9717 43.8778 22.9117 43.8778 20.3794C43.8778 17.8472 41.8178 15.7872 39.2855 15.7872C36.7533 15.7872 34.6933 17.8472 34.6933 20.3794C34.6933 20.6861 34.445 20.935 34.1378 20.935C33.8305 20.935 33.5822 20.6861 33.5822 20.3794C33.5822 17.2344 36.1405 14.6761 39.2855 14.6761C42.4305 14.6761 44.9889 17.2344 44.9889 20.3794C44.9889 23.5244 42.43 26.0833 39.2855 26.0833Z" fill="black"/>
<path d="M39.2855 43.9111H15.3939C12.7628 43.9111 10.6222 41.77 10.6222 39.1389C10.6222 36.5078 12.7628 34.3667 15.3939 34.3667H20.9278C23.1067 34.3667 24.8789 32.5944 24.8789 30.4156C24.8789 28.2367 23.1067 26.4644 20.9278 26.4644H8.65666C8.34999 26.4644 8.1011 26.2161 8.1011 25.9089C8.1011 25.6017 8.34999 25.3533 8.65666 25.3533H20.9283C23.7194 25.3533 25.9906 27.6244 25.9906 30.4156C25.9906 33.2067 23.7194 35.4778 20.9283 35.4778H15.3944C13.3761 35.4778 11.7339 37.12 11.7339 39.1389C11.7339 41.1578 13.3761 42.8 15.3944 42.8H39.2855C39.5928 42.8 39.8411 43.0483 39.8411 43.3556C39.8411 43.6628 39.5928 43.9111 39.2855 43.9111Z" fill="black"/>
<path d="M16.1367 22.7811H0.555556C0.248889 22.7811 0 22.5322 0 22.2256V6.64445C0 6.33778 0.248889 6.08889 0.555556 6.08889H16.1367C16.4433 6.08889 16.6922 6.33778 16.6922 6.64445V22.2256C16.6922 22.5328 16.4439 22.7811 16.1367 22.7811ZM1.11111 21.67H15.5811V7.2H1.11111V21.67Z" fill="black"/>
<path d="M10.5089 13.2111C10.3917 13.2111 10.2756 13.1744 10.1778 13.1017L8.34667 11.7422L6.51556 13.1017C6.34722 13.2278 6.12222 13.2467 5.935 13.1522C5.74778 13.0578 5.62889 12.8656 5.62889 12.6556V6.64445C5.62889 6.33778 5.87778 6.08889 6.18445 6.08889C6.49111 6.08889 6.74 6.33778 6.74 6.64445V11.5511L8.01556 10.6039C8.21222 10.4578 8.48111 10.4578 8.67778 10.6039L9.95334 11.5511V6.64445C9.95334 6.33778 10.2022 6.08889 10.5089 6.08889C10.8156 6.08889 11.0644 6.33778 11.0644 6.64445V12.6556C11.0644 12.8656 10.9461 13.0578 10.7583 13.1522C10.6794 13.1917 10.5939 13.2111 10.5089 13.2111Z" fill="black"/>
<path d="M6.35499 17.2983H3.41611C3.10944 17.2983 2.86055 17.0494 2.86055 16.7428C2.86055 16.4361 3.10944 16.1872 3.41611 16.1872H6.35499C6.66166 16.1872 6.91055 16.4361 6.91055 16.7428C6.91055 17.0494 6.66166 17.2983 6.35499 17.2983Z" fill="black"/>
<path d="M6.35499 20.0278H3.41611C3.10944 20.0278 2.86055 19.7789 2.86055 19.4722C2.86055 19.1656 3.10944 18.9167 3.41611 18.9167H6.35499C6.66166 18.9167 6.91055 19.1656 6.91055 19.4722C6.91055 19.7789 6.66166 20.0278 6.35499 20.0278Z" fill="black"/>
</svg>
