<svg xmlns="http://www.w3.org/2000/svg" version="1.0" preserveAspectRatio="xMidYMid meet" viewBox="21 106.19 605 263.71">

<g transform="translate(0.000000,520.000000) scale(0.100000,-0.100000)" fill="#000000" stroke="none">
<path d="M3670 4118 c-30 -15 -53 -37 -67 -63 -21 -37 -23 -53 -23 -216 0 -168 -1 -177 -20 -182 -11 -3 -20 -14 -20 -25 0 -18 -9 -16 -142 24 -164 51 -204 53 -358 24 -58 -11 -106 -20 -107 -20 -2 0 -3 38 -3 85 0 72 3 88 20 105 11 11 27 20 35 20 10 0 15 10 15 28 0 15 3 38 7 51 6 23 5 24 -35 19 -53 -8 -97 -40 -122 -88 -16 -31 -20 -59 -20 -139 0 -112 8 -101 -93 -121 -69 -14 -105 -42 -147 -114 -35 -63 -37 -70 -10 -63 17 4 19 2 13 -21 -18 -76 12 -69 -302 -64 -249 4 -283 3 -306 -12 l-25 -16 0 -194 0 -194 -27 -10 c-16 -6 -37 -12 -48 -14 -17 -3 -21 -14 -27 -71 -3 -38 -11 -82 -17 -99 -6 -17 -11 -89 -11 -159 0 -125 1 -129 22 -134 13 -3 79 -17 148 -30 120 -23 122 -24 46 -18 l-78 6 17 -26 c15 -24 90 -67 116 -67 6 0 8 7 5 16 -5 12 -1 11 19 -4 20 -16 32 -18 74 -11 53 8 80 20 105 44 13 13 31 14 128 5 62 -5 118 -10 125 -10 6 0 14 -8 17 -17 4 -10 16 -29 27 -43 l20 -25 -6 25 c-6 23 -5 22 13 -5 20 -32 78 -85 92 -85 5 0 17 -3 27 -7 12 -4 8 5 -13 28 -18 19 -40 50 -49 69 -19 39 -12 33 28 -21 32 -45 99 -79 153 -79 122 0 220 87 255 223 l11 46 52 5 c45 5 685 36 729 36 12 0 17 -8 17 -30 0 -37 23 -85 45 -94 14 -5 16 -1 11 27 l-6 32 15 -37 c16 -36 64 -65 50 -30 -17 41 -14 54 5 20 22 -42 43 -47 111 -28 47 13 69 39 85 97 l13 48 0 -47 1 -48 51 0 c71 0 104 34 114 116 9 68 -6 184 -29 218 -18 28 -76 41 -135 31 -24 -4 -48 -2 -62 6 -33 17 -182 14 -221 -5 -20 -11 -54 -15 -97 -14 -41 1 -52 3 -28 5 27 3 37 9 37 22 0 21 67 26 465 36 121 4 231 9 245 12 20 5 -341 59 -652 97 -43 6 -58 12 -58 23 0 13 15 15 118 9 64 -3 167 -8 227 -11 l110 -4 -227 56 -228 57 0 206 c0 239 5 227 -100 257 -62 18 -65 21 -68 52 -2 23 -10 35 -23 38 -18 5 -19 16 -19 188 l0 184 26 20 c14 11 29 21 34 23 4 2 10 23 11 48 3 39 1 45 -16 48 -11 1 -40 -8 -65 -20z m70 -8 c0 -12 -16 -26 -57 -50 -22 -13 -35 -31 -42 -57 -7 -25 -11 -257 -11 -669 0 -666 -2 -691 -47 -761 -25 -37 -27 -18 -4 29 33 68 36 136 31 563 -4 351 -6 381 -12 246 -5 -85 -8 -276 -9 -425 0 -196 -4 -282 -14 -311 l-13 -40 -1 49 -1 48 -167 -5 c-169 -6 -134 3 80 18 l87 7 0 444 c0 437 0 444 20 444 19 0 20 7 20 189 0 179 1 190 23 222 30 45 117 89 117 59z m-750 -175 c0 -8 -15 -21 -34 -29 -56 -23 -66 -48 -66 -157 0 -88 -2 -97 -20 -102 -19 -5 -20 0 -20 94 0 106 9 137 52 175 38 35 88 46 88 19z m-188 -345 c-18 -11 -30 -25 -27 -30 3 -6 36 -10 72 -10 37 0 64 -2 62 -5 -5 -4 -146 -26 -246 -38 -39 -4 -41 7 -10 46 22 28 95 54 157 56 24 1 23 0 -8 -19z m321 -158 l-36 -112 -56 1 c-31 0 -74 3 -96 7 l-39 7 129 106 c72 59 131 106 132 105 1 -1 -14 -52 -34 -114z m175 102 c28 -3 52 -10 52 -13 0 -7 -170 -149 -197 -164 -7 -4 -1 25 13 70 13 43 27 88 30 101 5 18 12 22 28 18 11 -3 45 -8 74 -12z m-260 -12 c-15 -9 -75 -56 -134 -104 -98 -80 -134 -101 -134 -80 0 4 45 45 101 91 55 45 99 85 97 86 -2 2 -21 0 -43 -5 -22 -4 -57 -11 -77 -14 -26 -5 -65 -30 -128 -81 -51 -41 -96 -75 -101 -75 -13 0 -11 13 8 86 12 43 22 64 33 64 8 1 98 11 200 24 102 13 190 24 195 25 6 0 -2 -7 -17 -17z m417 -22 c-3 -5 -53 -48 -110 -95 -82 -67 -111 -86 -131 -83 -24 3 -20 8 52 68 43 36 92 79 108 95 23 22 38 29 58 26 15 -2 26 -7 23 -11z m5 -145 c0 -53 -1 -55 -27 -54 -16 0 -45 3 -65 7 l-37 7 57 47 c31 25 60 47 65 47 4 1 7 -24 7 -54z m-1132 -42 c19 -26 20 -26 198 -35 98 -5 285 -15 414 -23 l235 -13 -220 4 c-121 2 -309 7 -417 10 -195 6 -198 6 -198 -14 0 -26 29 -29 400 -40 l275 -9 -337 -1 -338 -2 0 -25 0 -25 163 -1 c89 -1 194 -5 232 -9 48 -5 -2 -7 -162 -8 l-233 -2 0 -154 c0 -112 -4 -163 -15 -187 -13 -31 -14 -10 -17 241 l-3 275 -152 3 -153 3 0 -291 c0 -187 -4 -290 -10 -290 -15 0 -13 593 2 608 8 8 59 12 164 12 l152 0 20 -27z m1397 -319 l5 -319 135 -3 c133 -3 136 -2 144 20 8 22 9 21 16 -10 8 -39 -1 -94 -22 -135 -21 -42 -25 -28 -6 24 22 60 13 83 -28 75 -18 -3 -80 -6 -139 -6 l-108 0 -16 -42 c-9 -24 -13 -32 -9 -18 4 14 8 186 10 384 2 197 6 356 8 354 3 -2 7 -148 10 -324z m-1683 -77 c2 -152 0 -197 -9 -197 -15 0 -17 126 -6 321 9 150 11 132 15 -124z m39 13 c1 -154 -1 -215 -10 -218 -8 -3 -11 29 -11 111 0 113 11 330 16 324 1 -1 4 -99 5 -217z m41 -43 c2 -136 0 -177 -9 -177 -15 0 -18 186 -5 341 8 108 11 82 14 -164z m40 -20 c2 -120 0 -157 -9 -157 -15 0 -18 213 -5 346 7 75 7 77 9 24 2 -30 4 -126 5 -213z m40 -20 c2 -104 0 -137 -9 -137 -15 0 -18 241 -5 351 l7 64 2 -70 c2 -38 4 -132 5 -208z m38 58 c0 -123 -4 -195 -10 -195 -6 0 -10 56 -10 149 0 135 7 241 16 241 2 0 4 -88 4 -195z m40 -10 c0 -123 -4 -195 -10 -195 -6 0 -10 61 -10 164 0 147 6 226 16 226 2 0 4 -88 4 -195z m572 114 c47 -19 80 -22 273 -27 185 -5 207 -7 135 -13 -47 -4 -134 -8 -195 -8 l-110 -2 27 -23 c26 -23 28 -24 230 -20 l203 3 -165 -14 c-91 -7 -178 -13 -193 -14 l-28 -1 24 -32 c29 -38 52 -83 61 -118 4 -14 -10 5 -30 43 -94 173 -269 261 -445 225 -41 -8 -83 -18 -94 -22 -20 -7 -20 -7 0 5 68 43 222 52 307 18z m-892 -144 c0 -34 -1 -35 -40 -35 -39 0 -40 1 -40 35 0 34 1 35 40 35 39 0 40 -1 40 -35z m608 -1 c6 -2 12 -17 12 -34 l0 -31 -97 3 -98 3 -3 38 -3 37 88 -6 c48 -3 94 -7 101 -10z m407 -36 c49 -26 115 -112 115 -148 -1 -8 -10 3 -22 25 -77 149 -226 178 -348 68 -58 -52 -110 -149 -110 -204 0 -21 -4 -41 -10 -44 -6 -4 -10 25 -10 79 l0 85 -107 4 -108 3 118 2 117 2 0 -27 c1 -27 2 -26 22 12 34 65 68 104 114 131 74 43 160 48 229 12z m1222 -115 c26 -40 26 -217 0 -257 -37 -56 -73 -13 -84 98 -6 65 8 148 29 173 17 20 36 15 55 -14z m183 -3 c17 -31 23 -132 11 -176 -15 -55 -36 -73 -59 -50 -22 22 -30 172 -12 216 14 35 44 40 60 10z m-1420 -20 c37 -39 53 -90 54 -165 2 -157 -103 -250 -182 -161 -123 140 3 460 128 326z m-780 -10 c259 -12 310 -17 195 -20 l-70 -2 77 -17 c43 -10 81 -21 85 -25 10 -10 10 -175 1 -198 -6 -15 -20 -18 -87 -18 -121 0 -472 51 -498 72 -9 7 -13 41 -13 103 0 66 4 95 13 98 7 3 2 9 -13 16 -22 10 -20 11 20 7 25 -3 155 -10 290 -16z m917 -42 c-3 -8 -6 -5 -6 6 -1 11 2 17 5 13 3 -3 4 -12 1 -19z"/>
<path d="M1928 1833 c-15 -2 -41 -17 -58 -33 -24 -22 -30 -36 -30 -68 0 -51 38 -86 112 -101 86 -19 103 -51 26 -51 -31 0 -41 4 -45 20 -4 16 -14 20 -49 20 -51 0 -57 -7 -43 -49 14 -39 54 -61 124 -68 99 -10 165 33 165 108 0 51 -24 74 -97 94 -67 18 -85 27 -87 40 -2 18 67 18 76 1 6 -11 24 -16 57 -16 46 0 48 1 44 24 -12 61 -94 94 -195 79z"/>
<path d="M2708 1831 c-82 -17 -121 -70 -121 -163 1 -74 25 -116 83 -145 83 -43 198 -19 240 49 26 44 27 139 2 188 -31 56 -120 88 -204 71z m91 -88 c45 -37 35 -147 -15 -159 -38 -10 -74 4 -84 32 -18 46 -12 93 15 119 29 29 55 32 84 8z"/>
<path d="M4830 1829 c-93 -28 -136 -135 -94 -239 24 -60 71 -85 161 -85 57 0 77 4 99 21 55 41 69 70 69 144 0 76 -17 111 -71 142 -37 22 -119 30 -164 17z m118 -96 c17 -24 15 -104 -4 -131 -18 -27 -69 -30 -96 -5 -27 24 -25 116 3 144 24 24 75 20 97 -8z"/>
<path d="M5644 1803 c-8 -21 -28 -65 -45 -98 -27 -54 -35 -86 -30 -122 1 -9 23 -13 76 -13 l75 0 0 -30 c0 -29 2 -30 45 -30 43 0 45 1 45 29 0 23 5 30 23 33 17 2 23 11 25 36 3 29 1 32 -22 32 -26 0 -26 0 -26 86 0 74 -2 85 -16 80 -9 -3 -17 -6 -19 -6 -10 0 -55 -105 -55 -130 0 -28 -2 -30 -40 -30 -22 0 -40 3 -40 6 0 3 13 23 28 43 36 46 68 99 77 129 6 21 3 22 -40 22 -44 0 -47 -2 -61 -37z"/>
<path d="M210 1790 l0 -40 55 0 55 0 0 -120 0 -120 55 0 55 0 0 120 0 120 50 0 50 0 0 40 0 40 -160 0 -160 0 0 -40z"/>
<path d="M610 1671 l0 -161 55 0 55 0 0 55 c0 48 3 55 19 55 14 0 28 -17 46 -55 l27 -55 60 0 59 0 -36 64 -36 64 27 19 c39 29 45 99 11 139 -25 29 -25 29 -156 32 l-131 4 0 -161z m178 83 c16 -5 22 -13 20 -28 -2 -17 -11 -22 -45 -24 -42 -3 -43 -2 -43 27 0 33 16 39 68 25z"/>
<path d="M1050 1683 c-29 -82 -55 -154 -58 -160 -3 -10 11 -13 52 -13 49 0 56 2 56 20 0 18 7 20 59 20 51 0 61 -3 66 -20 5 -17 15 -20 62 -20 40 0 54 3 50 13 -2 6 -28 78 -58 160 l-53 147 -61 0 -61 0 -54 -147z m139 -34 c1 -18 -39 -33 -51 -21 -5 5 -1 30 9 57 l16 49 13 -34 c7 -19 13 -42 13 -51z"/>
<path d="M1420 1670 l0 -160 45 0 45 0 0 70 c0 39 4 70 9 70 5 0 35 -31 68 -70 57 -68 59 -70 106 -70 l47 0 0 160 0 160 -49 0 -50 0 2 -70 c0 -38 -1 -72 -4 -74 -2 -2 -31 29 -64 69 -59 73 -61 74 -107 75 l-48 0 0 -160z"/>
<path d="M2220 1670 l0 -160 55 0 55 0 0 49 0 49 60 4 c72 5 107 33 116 90 8 45 -18 101 -52 117 -14 6 -72 11 -129 11 l-105 0 0 -160z m175 50 c0 -21 -5 -26 -32 -28 -31 -3 -33 -1 -33 28 0 29 2 31 33 28 27 -2 32 -7 32 -28z"/>
<path d="M3030 1671 l0 -161 50 0 50 0 0 55 c0 48 2 55 20 55 15 0 28 -16 47 -55 l27 -55 58 0 58 0 -31 63 -32 64 27 26 c35 35 36 94 2 134 -24 28 -26 28 -150 31 l-126 4 0 -161z m184 76 c31 -22 10 -47 -40 -47 -42 0 -44 1 -44 30 0 27 3 30 33 30 18 0 41 -6 51 -13z"/>
<path d="M3400 1791 l0 -40 53 -3 52 -3 3 -117 3 -118 49 0 50 0 0 120 0 120 55 0 55 0 0 40 0 40 -160 0 -160 0 0 -39z"/>
<path d="M3800 1678 c-30 -84 -56 -156 -58 -160 -2 -4 21 -8 51 -8 46 0 55 3 60 20 4 17 14 20 62 20 48 0 58 -3 62 -20 5 -17 14 -20 59 -20 30 0 54 3 54 7 0 3 -25 75 -56 160 l-57 153 -61 0 -61 0 -55 -152z m134 -1 c8 -26 11 -48 8 -50 -15 -7 -52 -1 -53 8 -1 18 22 98 26 93 3 -3 11 -26 19 -51z"/>
<path d="M4110 1790 l0 -40 55 0 55 0 0 -120 0 -120 56 0 56 0 -4 118 -3 117 53 3 52 3 0 40 0 39 -160 0 -160 0 0 -40z"/>
<path d="M4520 1670 l0 -160 50 0 50 0 0 160 0 160 -50 0 -50 0 0 -160z"/>
<path d="M5160 1670 l0 -160 50 0 50 0 0 73 1 72 65 -72 c63 -70 68 -73 110 -73 l44 0 0 160 0 160 -45 0 -44 0 -3 -77 -3 -78 -65 78 c-64 76 -65 77 -112 77 l-48 0 0 -160z"/>
<path d="M5940 1715 c0 -138 11 -167 73 -196 54 -24 120 -24 174 0 62 29 73 58 73 196 l0 115 -50 0 -50 0 0 -103 c0 -122 -12 -150 -63 -145 -45 4 -57 35 -57 151 l0 97 -50 0 -50 0 0 -115z"/>
</g>
</svg>