<svg width="50" height="56" fill="none" xmlns="http://www.w3.org/2000/svg"><path d="m4.459 18.512 21.08 11.834-.37 22.93L4.459 41.44v-22.93ZM25.909 4.828l21.45 12.205-9.616 5.177-21.82-11.834 9.986-5.548Z" fill="#FFD550"/><g stroke="#1C1F35" stroke-width="2" stroke-linecap="round" stroke-linejoin="round"><path d="M48.75 41.21V18.004a1.907 1.907 0 0 0-.966-1.648L27.072 4.705a1.836 1.836 0 0 0-1.836 0L4.523 16.355a1.906 1.906 0 0 0-.965 1.648v23.208a1.906 1.906 0 0 0 .965 1.647L25.236 54.51a1.836 1.836 0 0 0 1.835 0l20.713-11.65a1.907 1.907 0 0 0 .965-1.648v0Z"/><path d="M37.687 35.373V23.134L14.856 10.542"/><path d="M48.49 17.038 26.365 29.607 3.818 17.038M26.366 29.607l-.212 25.138"/></g><path d="m1.5 13.57 10.635-6.153M30.346 1.5l10.641 6.143M40.987 42.18l-10.64 6.144" stroke="#1C1F35" stroke-width="2" stroke-linecap="round" stroke-linejoin="round"/></svg>