<svg width="50" height="54" fill="none" xmlns="http://www.w3.org/2000/svg"><path d="M2.503 21.153V7.375c0-.498.197-.976.548-1.328.35-.352.825-.55 1.321-.55h37.371c.496 0 .971.198 1.322.55.35.352.547.83.547 1.328v13.778c0 19.717-16.654 26.243-19.97 27.346-.377.14-.791.14-1.168 0-3.317-1.103-19.97-7.629-19.97-27.346Z" fill="#FFD550" stroke="#1C1F35" stroke-width="2" stroke-linecap="round" stroke-linejoin="round"/><path d="M18.814 51.24c-2.925-.922-10.103-4.406-17.092-13.495M33.334 18.642l-13.71 13.144-6.844-6.572" stroke="#1C1F35" stroke-width="2" stroke-linecap="round" stroke-linejoin="round"/><path d="m27.99 29.555-4.934 4.958" stroke="#fff" stroke-width="2" stroke-linecap="round" stroke-linejoin="round"/><path d="M48.723 5.458v13.22M22.056 1.5H1.5" stroke="#1C1F35" stroke-width="2" stroke-linecap="round" stroke-linejoin="round"/></svg>